<svg id="man" xmlns="http://www.w3.org/2000/svg" xmlns:xlink="http://www.w3.org/1999/xlink" viewBox="0 0 150 150"><defs><style>.cls-1,.cls-7{fill:#3e403d;}.cls-1,.cls-15{stroke:#fff;}.cls-1,.cls-10,.cls-11,.cls-15,.cls-9{stroke-miterlimit:10;}.cls-15,.cls-2{fill:none;}.cls-3{opacity:0.41;}.cls-4{fill:#0c7779;}.cls-5{fill:#96998d;}.cls-6{fill:#c55548;}.cls-8{clip-path:url(#clip-path);}.cls-10,.cls-11,.cls-9{fill:#fff;stroke-width:0.5px;}.cls-9{stroke:#939598;}.cls-10{stroke:#48463a;}.cls-11{stroke:#96998d;}.cls-12{clip-path:url(#clip-path-2);}.cls-13{fill:#f8f8f2;}.cls-14{fill:#009444;}</style><clipPath id="clip-path"><circle class="cls-1" cx="72.64" cy="68.87" r="14.29" transform="translate(-0.52 0.56) rotate(-0.44)"/></clipPath><clipPath id="clip-path-2"><rect class="cls-2" x="63.78" y="62.64" width="14.04" height="12.73" transform="translate(-3.13 3.37) rotate(-2.67)"/></clipPath></defs><title>icon</title><path class="cls-4" d="M66.63,76.31s-17.29,48.44-8.79,68.22c-2.34,0-16.74-.15-16.74-0.15Z"/><path class="cls-4" d="M78.74,76.31S96,124.75,87.54,144.53c2.34,0,16.74-.15,16.74-0.15Z"/><path class="cls-5" d="M94.83,97.44c-0.3-38.87-6-46.81-22.69-95.11C55.23,50.89,50.6,58.91,50.9,97.78c0.2,26.19,9,44.58,22.3,44.48S95,119.77,94.83,97.44Z"/><path class="cls-6" d="M89.63,126.79c8.09-14.15,7.92-60-5.9-91.58-5.54,6-17.2,6.08-23.17.25C48.53,63.76,48.1,111,56,127.05,70.39,129.4,76.54,129.2,89.63,126.79Z"/><circle class="cls-7" cx="72.64" cy="68.87" r="14.29" transform="translate(-0.52 0.56) rotate(-0.44)"/><g class="cls-8"><path class="cls-5" d="M71.17,63.07c4.05,1.14,5.81,2.48,6,5.86s-1.61,5-5.41,6.24C70.29,72.39,70.62,65.21,71.17,63.07Z"/><rect class="cls-9" x="75.08" y="62.79" width="13.19" height="11.85" transform="translate(16.93 153.57) rotate(-92.73)"/><path class="cls-10" d="M88.18,61.24c6.21-.3,6.89,14,0.68,14.31s-11.4-2.67-11.59-6.62S82,61.53,88.18,61.24Z"/><path class="cls-11" d="M87.16,62.7c4.09-.19,4.64,11.28.55,11.48S80.18,72,80,68.8,83.07,62.9,87.16,62.7Z"/><g class="cls-12"><path class="cls-10" d="M71.17,63.07a6.22,6.22,0,1,0,.56,12.09Z"/><path class="cls-10" d="M76.23,68.9a6.22,6.22,0,0,1-4.5,6.27s6.32-1.28,6.09-6.34-6.65-5.75-6.65-5.75a6.22,6.22,0,0,1,5.06,5.82"/><path class="cls-4" d="M75.88,64.54a1,1,0,1,1-.92,1,1,1,0,0,1,.92-1"/><path class="cls-4" d="M64.7,63.38h0a0.18,0.18,0,0,1,.17-0.18l6.21-.29a0.18,0.18,0,0,1,0,.35l-6.21.29a0.18,0.18,0,0,1-.18-0.17"/><path class="cls-4" d="M64.09,63.87a0.46,0.46,0,1,1,.44-0.48,0.46,0.46,0,0,1-.44.48"/><path class="cls-5" d="M64.64,68.22a6,6,0,0,1,5.13-4.31,0.34,0.34,0,0,1,.34.17l0.2,0.35a0.33,0.33,0,0,1-.24.5c-0.9.14-2.9,0.78-4.84,3.59a0.34,0.34,0,0,1-.26.15,0.35,0.35,0,0,1-.33-0.45"/><path class="cls-5" d="M68.23,74.48a2.39,2.39,0,0,0,2.56.21,0.23,0.23,0,0,0,.14-0.19,0.18,0.18,0,0,0-.26-0.16,3.34,3.34,0,0,1-2.29-.08,0.15,0.15,0,0,0-.12,0,0.12,0.12,0,0,0,0,.2"/><path class="cls-13" d="M67.13,73.73h0a0.2,0.2,0,0,0,.09.27l0.31,0.16a0.2,0.2,0,0,0,.18-0.35l-0.31-.16a0.2,0.2,0,0,0-.27.09"/></g><circle class="cls-6" cx="77.3" cy="74.38" r="0.52" transform="translate(-3.45 3.76) rotate(-2.73)"/><circle class="cls-14" cx="77.24" cy="73.11" r="0.52" transform="translate(-3.39 3.76) rotate(-2.73)"/></g><circle class="cls-15" cx="72.64" cy="68.87" r="14.29" transform="translate(-0.52 0.56) rotate(-0.44)"/><circle class="cls-1" cx="72.86" cy="98.05" r="6.33" transform="translate(-49.18 92.87) rotate(-50.95)"/><polygon class="cls-4" points="72.87 117.92 76.59 144.53 69.15 144.52 72.87 117.92"/></svg>