<?xml version="1.0" encoding="utf-8"?>
<!-- Generator: Adobe Illustrator 21.1.0, SVG Export Plug-In . SVG Version: 6.00 Build 0)  -->
<svg version="1.1" id="man" xmlns="http://www.w3.org/2000/svg" xmlns:xlink="http://www.w3.org/1999/xlink" x="0px" y="0px"
	 viewBox="0 0 150 150" style="enable-background:new 0 0 150 150;" xml:space="preserve">
<style type="text/css">
	.st0{fill:#FFFFFF;stroke:#939598;stroke-width:0.5;stroke-miterlimit:10;}
	.st1{fill:#FFFFFF;stroke:#48463A;stroke-width:0.5;stroke-miterlimit:10;}
	.st2{fill:none;stroke:#96998D;stroke-width:0.5;stroke-miterlimit:10;}
	.st3{fill:#96998D;}
	.st4{clip-path:url(#SVGID_2_);fill:#FFFFFF;stroke:#48463A;stroke-width:0.5;stroke-miterlimit:10;}
	.st5{clip-path:url(#SVGID_2_);fill:#58415E;}
	.st6{clip-path:url(#SVGID_2_);fill:#96998D;}
	.st7{clip-path:url(#SVGID_2_);fill:#F8F8F2;}
	.st8{fill:#C55548;}
	.st9{fill:#009444;}
</style>
<title>icon</title>
<g>
	<rect x="50" y="64.7" class="st0" width="50.1" height="45"/>
	<path class="st1" d="M102.2,113.1c0,23.6-54.4,23.6-54.4,0S60,70.4,75,70.4S102.2,89.5,102.2,113.1z"/>
	<path class="st2" d="M96.8,109c0,15.6-43.6,15.6-43.6,0S63,80.8,75,80.8S96.8,93.5,96.8,109z"/>
	<path class="st3" d="M98.3,48.3c-5,15.2-10.4,21.6-23.3,21.6s-18.7-7-22.7-21.6C63.1,43.3,90.3,45.8,98.3,48.3z"/>
	<g>
		<defs>
			
				<rect id="SVGID_1_" x="49.2" y="21.7" transform="matrix(1.047155e-03 -1 1 1.047155e-03 29.9347 121.6594)" width="53.3" height="48.3"/>
		</defs>
		<clipPath id="SVGID_2_">
			<use xlink:href="#SVGID_1_"  style="overflow:visible;"/>
		</clipPath>
		<path class="st4" d="M98.3,48.3c3-12.7-4.9-25.4-17.6-28.4s-25.4,4.9-28.4,17.6c-0.8,3.5-0.8,7.2,0,10.8H98.3z"/>
		<path class="st4" d="M75.3,66.4c-10.9,0-20.4-7.5-23-18.2c0,0,3.7,24.2,23,24.2s23-24.2,23-24.2C95.8,59,86.3,66.5,75.3,66.4"/>
		<path class="st5" d="M91.9,65.9c0,2-1.6,3.7-3.7,3.7s-3.7-1.6-3.7-3.7c0-2,1.6-3.7,3.7-3.7c0,0,0,0,0,0
			C90.3,62.2,91.9,63.9,91.9,65.9"/>
		<path class="st5" d="M98.3,23.7L98.3,23.7c0.4,0,0.7,0.3,0.7,0.7V48c0,0.4-0.3,0.7-0.7,0.7c-0.4,0-0.7-0.3-0.7-0.7c0,0,0,0,0,0
			V24.4C97.6,24,97.9,23.7,98.3,23.7"/>
		<path class="st5" d="M96.5,21.3c0-1,0.8-1.8,1.8-1.8s1.8,0.8,1.8,1.8s-0.8,1.8-1.8,1.8S96.5,22.3,96.5,21.3"/>
		<path class="st6" d="M79.9,22.6c4.5,1.1,14.1,7,15.4,20.2c0,0.5-0.2,1-0.7,1.2l-1.4,0.7c-0.6,0.3-1.4,0.1-1.7-0.5
			c-0.1-0.1-0.1-0.3-0.1-0.5c-0.4-3.5-2.4-11.1-12.8-19c-0.3-0.2-0.5-0.6-0.5-1c0-0.7,0.7-1.3,1.4-1.3
			C79.7,22.6,79.8,22.6,79.9,22.6"/>
		<path class="st6" d="M55.6,35.1c-1.2,1.1-3.1,4.6-1.2,9.7c0.1,0.3,0.4,0.5,0.7,0.6c0.4,0,0.7-0.3,0.7-0.6c0-0.1,0-0.3-0.1-0.4
			c-0.8-2.9-0.6-5.9,0.7-8.6c0.1-0.1,0.1-0.3,0-0.5C56.3,35,56,34.9,55.8,35C55.7,35,55.6,35.1,55.6,35.1"/>
		<path class="st7" d="M58.6,31.1L58.6,31.1c-0.4-0.2-0.8-0.1-1,0.3L57,32.5c-0.2,0.4,0,0.8,0.4,1c0.3,0.2,0.7,0.1,0.9-0.3l0.7-1.2
			C59.1,31.8,59,31.3,58.6,31.1"/>
	</g>
	<circle class="st8" cx="54.3" cy="69.5" r="2"/>
	<circle class="st9" cx="59.1" cy="69.5" r="2"/>
</g>
</svg>
